<svg width="512" height="512" viewBox="0 0 512 512" xmlns="http://www.w3.org/2000/svg">
  <defs>
    <linearGradient id="grad1" x1="0%" y1="0%" x2="100%" y2="100%">
      <stop offset="0%" style="stop-color:#667eea;stop-opacity:1" />
      <stop offset="100%" style="stop-color:#764ba2;stop-opacity:1" />
    </linearGradient>
  </defs>
  
  <!-- 배경 원 -->
  <circle cx="256" cy="256" r="240" fill="url(#grad1)" stroke="#4a5568" stroke-width="8"/>
  
  <!-- 게코 몸체 -->
  <ellipse cx="256" cy="280" rx="120" ry="80" fill="#90EE90" stroke="#228B22" stroke-width="4"/>
  
  <!-- 게코 머리 -->
  <circle cx="256" cy="200" r="60" fill="#90EE90" stroke="#228B22" stroke-width="4"/>
  
  <!-- 눈 -->
  <circle cx="240" cy="190" r="8" fill="#000"/>
  <circle cx="272" cy="190" r="8" fill="#000"/>
  <circle cx="242" cy="188" r="3" fill="#FFF"/>
  <circle cx="274" cy="188" r="3" fill="#FFF"/>
  
  <!-- 코 -->
  <ellipse cx="256" cy="210" rx="4" ry="2" fill="#228B22"/>
  
  <!-- 등의 크레스트 -->
  <path d="M 200 180 Q 256 150 312 180" stroke="#228B22" stroke-width="6" fill="none"/>
  <path d="M 200 170 Q 256 140 312 170" stroke="#228B22" stroke-width="6" fill="none"/>
  <path d="M 200 160 Q 256 130 312 160" stroke="#228B22" stroke-width="6" fill="none"/>
  
  <!-- 꼬리 -->
  <path d="M 376 280 Q 420 260 440 240" stroke="#90EE90" stroke-width="12" fill="none"/>
  
  <!-- 발 -->
  <ellipse cx="200" cy="320" rx="15" ry="8" fill="#90EE90"/>
  <ellipse cx="312" cy="320" rx="15" ry="8" fill="#90EE90"/>
  
  <!-- DNA 심볼 -->
  <g transform="translate(256, 256)">
    <path d="M -40 -20 Q -20 -40 0 -20 Q 20 0 0 20 Q -20 40 0 60" stroke="#FFF" stroke-width="3" fill="none"/>
    <path d="M 40 -20 Q 20 -40 0 -20 Q -20 0 0 20 Q 20 40 0 60" stroke="#FFF" stroke-width="3" fill="none"/>
    <circle cx="-20" cy="-20" r="3" fill="#FFF"/>
    <circle cx="20" cy="-20" r="3" fill="#FFF"/>
    <circle cx="-20" cy="60" r="3" fill="#FFF"/>
    <circle cx="20" cy="60" r="3" fill="#FFF"/>
  </g>
</svg> 